PathFileType	4	(X/Y/Z)	C:/Users/beibeiliu/ov580/test_trc/User3\sequence.5_training_dense_right.trc
DataRate	CameraRate	NumFrames	NumMarkers	Units	OrigDataRate	OrigDataStartFrame	OrigNumFrames
120	120	8	19	mm	120	27	79
Frame#	Time	ThumbCMC			ThumbMCP			ThumbIP			ThumbTip			IndexMCP			IndexPIP			IndexTip			MiddleMCP			MiddlePIP			MiddleTip			RingMCP			RingPIP			RingTip			PinkyMCP			PinkyPIP			PinkyTip			BackHand1			BackHand2			BackHand3	
		X0	Y0	Z0	X1	Y1	Z1	X2	Y2	Z2	X3	Y3	Z3	X4	Y4	Z4	X5	Y5	Z5	X6	Y6	Z6	X7	Y7	Z7	X8	Y8	Z8	X9	Y9	Z9	X10	Y10	Z10	X11	Y11	Z11	X12	Y12	Z12	X13	Y13	Z13	X14	Y14	Z14	X15	Y15	Z15	X16	Y16	Z16	X17	Y17	Z17	X18	Y18	Z18	
26	0.216667	133.006	49.6059	-3.75981	119.746	34.391	-28.8695	114.831	20.2089	-55.6437	132.019	6.2915	-75.0716	138.539	63.0951	-74.6372	133.309	54.424	-96.9888	122.956	49.6814	-120.928	155.218	42.5792	-78.7758	141.315	10.6163	-74.4221	145.925	15.8046	-38.1359	165.489	25.0644	-71.1923	151.447	2.38352	-55.0916	156.402	16.4881	-24.5992	184.556	14.9379	-62.629	164.235	0.938354	-50.72	166.721	13.1386	-24.721	189.588	59.5561	-28.1019	196.47	57.4935	3.12487	163.9	74.1185	-6.6316	
27	0.225	133.979	52.3463	-1.38255	120.158	35.1109	-29.1779	120.626	20.5986	-61.3029	134.25	5.73867	-75.886	145.954	63.5789	-78.3539	136.823	57.5008	-98.7214	128.978	52.5406	-123.584	159.741	41.9847	-80.2361	146.048	11.4664	-77.29	146.446	19.8034	-36.6728	175.466	27.1509	-69.1915	156.012	3.60483	-57.9484	161.221	16.0924	-25.7453	189.089	17.4555	-61.9796	173.09	-3.35247	-50.9769	168.854	14.9824	-23.4225	195.266	60.0425	-29.5154	197.908	61.5812	6.45722	167.427	74.7036	-11.6324	
28	0.233333	140.62	58.94	-6.10209	126.386	44.4786	-35.6749	125.035	30.871	-60.1327	138.303	14.9544	-78.7968	155.914	80.1871	-79.5327	149.869	78.6736	-101.224	143.761	74.5254	-130.039	166.348	50.2617	-82.3413	147.86	24.3814	-82.0673	149.156	24.3884	-40.4865	177.389	32.2961	-71.9513	161.22	9.36076	-61.323	161.334	19.544	-29.8275	191.503	22.6401	-62.5257	171.902	4.91497	-53.2669	172.979	12.8908	-24.4968	201.27	63.9057	-26.1556	204.856	60.1898	6.91038	172.912	80.1449	-11.5228	
29	0.241667	148.195	64.4126	-4.92103	131.97	52.3174	-34.4217	128.458	40.0037	-65.8042	147.5	24.152	-80.9604	174.332	86.4867	-78.3717	170.638	90.0008	-100.385	167.393	88.5849	-126.284	177.155	54.8745	-83.3302	156.308	30.3078	-82.0211	152.092	32.5151	-41.5543	186.782	37.3716	-70.3228	164.174	16.1807	-62.1737	163.308	26.3937	-30.1854	197.437	26.4274	-61.4102	175.103	8.79268	-53.5262	175.943	14.7536	-25.1939	209.684	62.8814	-25.3329	211.732	57.8578	8.62734	180.663	81.4129	-6.02058	
30	0.25	152.832	65.7997	-7.59934	138.995	55.545	-37.9338	138.229	42.898	-64.4869	152.519	27.0608	-79.1855	183.995	86.1964	-74.0044	187.438	83.4516	-100.701	186.183	82.3563	-124.4	187.547	53.4122	-79.3562	164.178	29.7654	-80.8794	160.553	30.8468	-42.2001	194.619	34.7811	-69.6481	170.438	16.8721	-62.8411	172.276	25.9499	-27.8908	203.429	24.9206	-58.9963	180.172	11.863	-54.0114	178.631	16.9573	-26.1645	216.726	57.7293	-19.9405	213.45	54.0409	10.1251	189.06	78.9304	-3.64026	
31	0.258333	157.439	60.686	-5.62743	145.794	50.0732	-39.8011	146.563	37.8806	-64.9943	162.409	19.7084	-80.7927	192.14	71.2573	-72.2102	190.631	65.9987	-100.816	192.351	58.1425	-123.667	196.201	44.7863	-77.96	174.178	21.1269	-78.2134	165.131	27.6894	-37.5038	201.017	28.5057	-66.3739	179.838	9.21902	-57.8696	174.102	21.3143	-29.3635	213.456	16.6682	-54.3276	189.564	5.15279	-51.5216	184.368	16.7079	-24.1517	220.068	54.8981	-17.3511	216.131	53.9767	16.1635	195.054	72.5831	-3.01563	
32	0.266667	158.071	58.5921	-3.65521	148.604	46.4314	-40.5458	150.826	33.423	-68.4399	169.653	14.783	-79.2963	194.942	66.8671	-72.3156	190.562	59.9579	-102.336	191.264	52.3204	-120.955	201.382	42.8544	-73.787	176.019	19.0084	-77.3128	171.885	21.8097	-37.8218	207.817	25.2363	-63.6123	184.423	6.01766	-58.4183	181.825	18.527	-25.701	219.117	15.0776	-52.0274	196.213	-2.32818	-48.7539	190.861	15.0499	-21.9333	226.793	51.2272	-14.081	221.925	47.2287	15.5172	199.203	70.1915	-5.49214	
33	0.275	163.874	59.7625	-6.09648	150.17	49.8249	-37.957	152.816	35.5435	-66.5278	172.426	16.7637	-82.0178	200.286	76.6769	-75.4428	200.487	74.1346	-99.2783	203.249	67.8806	-122.865	207.649	43.8834	-73.0838	180.918	22.7384	-79.8493	172.024	24.5195	-41.801	209.866	24.4692	-65.9772	187.49	7.4156	-59.0913	184.554	16.4799	-28.0777	220.082	14.4485	-55.1452	196.484	0.512249	-51.2314	191.404	12.8199	-19.6128	230.607	52.3645	-13.9922	223.6	48.5457	13.7582	199.527	72.405	-2.09091	
